<?xml version="1.0" encoding="UTF-8"?>
<svg xmlns="http://www.w3.org/2000/svg" xmlns:xlink="http://www.w3.org/1999/xlink" width="142.623pt" height="115.511pt" viewBox="0 0 142.623 115.511" version="1.1">
<defs>
<clipPath id="clip1">
  <path d="M 3 10 L 133 10 L 133 115.511719 L 3 115.511719 Z M 3 10 "/>
</clipPath>
<clipPath id="clip2">
  <path d="M 0 0 L 142.621094 0 L 142.621094 115.511719 L 0 115.511719 Z M 0 0 "/>
</clipPath>
<clipPath id="clip3">
  <path d="M 134 61 L 142.621094 61 L 142.621094 64 L 134 64 Z M 134 61 "/>
</clipPath>
<clipPath id="clip4">
  <path d="M 44 0 L 142.621094 0 L 142.621094 64 L 44 64 Z M 44 0 "/>
</clipPath>
<clipPath id="clip5">
  <path d="M 5 79 L 46 79 L 46 115.511719 L 5 115.511719 Z M 5 79 "/>
</clipPath>
<clipPath id="clip6">
  <path d="M 83 79 L 124 79 L 124 115.511719 L 83 115.511719 Z M 83 79 "/>
</clipPath>
<clipPath id="clip7">
  <path d="M 23 0 L 142.621094 0 L 142.621094 115.511719 L 23 115.511719 Z M 23 0 "/>
</clipPath>
</defs>
<g id="surface1">
<g clip-path="url(#clip1)" clip-rule="nonzero">
<path style=" stroke:none;fill-rule:nonzero;fill:rgb(94.999695%,94.999695%,94.999695%);fill-opacity:1;" d="M 128.417969 10.019531 L 7.703125 10.019531 C 5.503906 10.019531 3.71875 11.804688 3.71875 14.003906 L 3.71875 111.128906 C 3.71875 113.328125 5.503906 115.113281 7.703125 115.113281 L 128.417969 115.113281 C 130.621094 115.113281 132.402344 113.328125 132.402344 111.128906 L 132.402344 14.003906 C 132.402344 11.804688 130.621094 10.019531 128.417969 10.019531 Z M 128.417969 10.019531 "/>
</g>
<g clip-path="url(#clip2)" clip-rule="nonzero">
<path style="fill:none;stroke-width:0.79701;stroke-linecap:butt;stroke-linejoin:miter;stroke:rgb(0%,0%,0%);stroke-opacity:1;stroke-miterlimit:10;" d="M 60.356969 52.547469 L -60.357875 52.547469 C -62.557094 52.547469 -64.34225 50.762313 -64.34225 48.563094 L -64.34225 -48.561906 C -64.34225 -50.761125 -62.557094 -52.546281 -60.357875 -52.546281 L 60.356969 -52.546281 C 62.560094 -52.546281 64.341344 -50.761125 64.341344 -48.561906 L 64.341344 48.563094 C 64.341344 50.762313 62.560094 52.547469 60.356969 52.547469 Z M 60.356969 52.547469 " transform="matrix(1,0,0,-1,68.061,62.567)"/>
</g>
<g clip-path="url(#clip3)" clip-rule="nonzero">
<path style="fill:none;stroke-width:1.59404;stroke-linecap:butt;stroke-linejoin:miter;stroke:rgb(0%,0%,0%);stroke-opacity:1;stroke-miterlimit:10;" d="M 67.329625 0.00059375 L 73.767125 0.00059375 " transform="matrix(1,0,0,-1,68.061,62.567)"/>
</g>
<path style="fill:none;stroke-width:1.59404;stroke-linecap:butt;stroke-linejoin:miter;stroke:rgb(0%,0%,0%);stroke-opacity:1;stroke-miterlimit:10;" d="M -22.443813 55.336531 L -22.443813 61.770125 " transform="matrix(1,0,0,-1,68.061,62.567)"/>
<path style="fill:none;stroke-width:1.59404;stroke-linecap:butt;stroke-linejoin:miter;stroke:rgb(0%,0%,0%);stroke-opacity:1;stroke-miterlimit:10;" d="M 22.442906 55.336531 L 22.442906 61.770125 " transform="matrix(1,0,0,-1,68.061,62.567)"/>
<g clip-path="url(#clip4)" clip-rule="nonzero">
<path style="fill:none;stroke-width:1.59404;stroke-linecap:butt;stroke-linejoin:miter;stroke:rgb(0%,0%,0%);stroke-opacity:1;stroke-miterlimit:10;" d="M -22.443813 61.770125 L -22.443813 52.117781 M 22.442906 61.770125 L 22.442906 52.117781 M 73.767125 0.00059375 L 64.114781 0.00059375 " transform="matrix(1,0,0,-1,68.061,62.567)"/>
</g>
<path style="fill-rule:nonzero;fill:rgb(0%,0%,0%);fill-opacity:1;stroke-width:0.79701;stroke-linecap:butt;stroke-linejoin:miter;stroke:rgb(0%,0%,0%);stroke-opacity:1;stroke-miterlimit:10;" d="M 6.608687 7.507313 L -6.606156 7.507313 C -8.809281 7.507313 -10.590531 5.722156 -10.590531 3.522938 L -10.590531 -3.520031 C -10.590531 -5.723156 -8.809281 -7.508312 -6.606156 -7.508312 L 6.608687 -7.508312 C 8.807906 -7.508312 10.593062 -5.723156 10.593062 -3.520031 L 10.593062 3.522938 C 10.593062 5.722156 8.807906 7.507313 6.608687 7.507313 Z M 6.608687 7.507313 " transform="matrix(1,0,0,-1,64.446,34.562)"/>
<path style="fill:none;stroke-width:1.59404;stroke-linecap:butt;stroke-linejoin:miter;stroke:rgb(0%,0%,0%);stroke-opacity:1;stroke-miterlimit:10;" d="M 10.9915 -0.0005 L 17.425094 -0.0005 " transform="matrix(1,0,0,-1,64.446,34.562)"/>
<path style="fill:none;stroke-width:1.59404;stroke-linecap:butt;stroke-linejoin:miter;stroke:rgb(0%,0%,0%);stroke-opacity:1;stroke-miterlimit:10;" d="M -0.0006875 7.90575 L -0.0006875 14.339344 " transform="matrix(1,0,0,-1,64.446,34.562)"/>
<path style="fill:none;stroke-width:1.59404;stroke-linecap:butt;stroke-linejoin:miter;stroke:rgb(0%,0%,0%);stroke-opacity:1;stroke-miterlimit:10;" d="M -10.988969 -0.0005 L -17.426469 -0.0005 " transform="matrix(1,0,0,-1,64.446,34.562)"/>
<path style="fill-rule:nonzero;fill:rgb(0%,0%,0%);fill-opacity:1;stroke-width:0.79701;stroke-linecap:butt;stroke-linejoin:miter;stroke:rgb(0%,0%,0%);stroke-opacity:1;stroke-miterlimit:10;" d="M 6.608687 7.506219 L -6.606156 7.506219 C -8.809281 7.506219 -10.590531 5.721063 -10.590531 3.521844 L -10.590531 -3.521125 C -10.590531 -5.72425 -8.809281 -7.5055 -6.606156 -7.5055 L 6.608687 -7.5055 C 8.807906 -7.5055 10.593062 -5.72425 10.593062 -3.521125 L 10.593062 3.521844 C 10.593062 5.721063 8.807906 7.506219 6.608687 7.506219 Z M 6.608687 7.506219 " transform="matrix(1,0,0,-1,64.446,66.182)"/>
<path style="fill:none;stroke-width:1.59404;stroke-linecap:butt;stroke-linejoin:miter;stroke:rgb(0%,0%,0%);stroke-opacity:1;stroke-miterlimit:10;" d="M 10.9915 -0.00159375 L 17.425094 -0.00159375 " transform="matrix(1,0,0,-1,64.446,66.182)"/>
<path style="fill:none;stroke-width:1.59404;stroke-linecap:butt;stroke-linejoin:miter;stroke:rgb(0%,0%,0%);stroke-opacity:1;stroke-miterlimit:10;" d="M -0.0006875 7.904656 L -0.0006875 14.33825 " transform="matrix(1,0,0,-1,64.446,66.182)"/>
<path style="fill:none;stroke-width:1.59404;stroke-linecap:butt;stroke-linejoin:miter;stroke:rgb(0%,0%,0%);stroke-opacity:1;stroke-miterlimit:10;" d="M -10.988969 -0.00159375 L -17.426469 -0.00159375 " transform="matrix(1,0,0,-1,64.446,66.182)"/>
<path style=" stroke:none;fill-rule:nonzero;fill:rgb(0%,0%,0%);fill-opacity:1;" d="M 30.320312 90.296875 L 21.132812 90.296875 C 18.929688 90.296875 17.148438 92.078125 17.148438 94.28125 L 17.148438 101.324219 C 17.148438 103.523438 18.929688 105.308594 21.132812 105.308594 L 30.320312 105.308594 C 32.519531 105.308594 34.304688 103.523438 34.304688 101.324219 L 34.304688 94.28125 C 34.304688 92.078125 32.519531 90.296875 30.320312 90.296875 Z M 30.320312 90.296875 "/>
<g clip-path="url(#clip5)" clip-rule="nonzero">
<path style="fill:none;stroke-width:0.79701;stroke-linecap:butt;stroke-linejoin:miter;stroke:rgb(0%,0%,0%);stroke-opacity:1;stroke-miterlimit:10;" d="M 4.594312 7.505125 L -4.593188 7.505125 C -6.796313 7.505125 -8.577563 5.723875 -8.577563 3.52075 L -8.577563 -3.522219 C -8.577563 -5.721437 -6.796313 -7.506594 -4.593188 -7.506594 L 4.594312 -7.506594 C 6.793531 -7.506594 8.578687 -5.721437 8.578687 -3.522219 L 8.578687 3.52075 C 8.578687 5.723875 6.793531 7.505125 4.594312 7.505125 Z M 4.594312 7.505125 " transform="matrix(1,0,0,-1,25.726,97.802)"/>
</g>
<path style="fill:none;stroke-width:1.59404;stroke-linecap:butt;stroke-linejoin:miter;stroke:rgb(0%,0%,0%);stroke-opacity:1;stroke-miterlimit:10;" d="M 8.977125 0.00121875 L 15.410719 0.00121875 " transform="matrix(1,0,0,-1,25.726,97.802)"/>
<path style="fill:none;stroke-width:1.59404;stroke-linecap:butt;stroke-linejoin:miter;stroke:rgb(0%,0%,0%);stroke-opacity:1;stroke-miterlimit:10;" d="M -2.991625 7.903563 L -2.991625 14.341063 " transform="matrix(1,0,0,-1,25.726,97.802)"/>
<path style="fill:none;stroke-width:1.59404;stroke-linecap:butt;stroke-linejoin:miter;stroke:rgb(0%,0%,0%);stroke-opacity:1;stroke-miterlimit:10;" d="M 2.99275 7.903563 L 2.99275 14.341063 " transform="matrix(1,0,0,-1,25.726,97.802)"/>
<path style=" stroke:none;fill-rule:nonzero;fill:rgb(0%,0%,0%);fill-opacity:1;" d="M 107.761719 90.296875 L 98.570312 90.296875 C 96.371094 90.296875 94.585938 92.078125 94.585938 94.28125 L 94.585938 101.324219 C 94.585938 103.523438 96.371094 105.308594 98.570312 105.308594 L 107.761719 105.308594 C 109.960938 105.308594 111.746094 103.523438 111.746094 101.324219 L 111.746094 94.28125 C 111.746094 92.078125 109.960938 90.296875 107.761719 90.296875 Z M 107.761719 90.296875 "/>
<g clip-path="url(#clip6)" clip-rule="nonzero">
<path style="fill:none;stroke-width:0.79701;stroke-linecap:butt;stroke-linejoin:miter;stroke:rgb(0%,0%,0%);stroke-opacity:1;stroke-miterlimit:10;" d="M 4.595719 7.505125 L -4.595688 7.505125 C -6.794906 7.505125 -8.580063 5.723875 -8.580063 3.52075 L -8.580063 -3.522219 C -8.580063 -5.721437 -6.794906 -7.506594 -4.595688 -7.506594 L 4.595719 -7.506594 C 6.794937 -7.506594 8.580094 -5.721437 8.580094 -3.522219 L 8.580094 3.52075 C 8.580094 5.723875 6.794937 7.505125 4.595719 7.505125 Z M 4.595719 7.505125 " transform="matrix(1,0,0,-1,103.166,97.802)"/>
</g>
<path style="fill:none;stroke-width:1.59404;stroke-linecap:butt;stroke-linejoin:miter;stroke:rgb(0%,0%,0%);stroke-opacity:1;stroke-miterlimit:10;" d="M 8.978531 0.00121875 L 15.412125 0.00121875 " transform="matrix(1,0,0,-1,103.166,97.802)"/>
<path style="fill:none;stroke-width:1.59404;stroke-linecap:butt;stroke-linejoin:miter;stroke:rgb(0%,0%,0%);stroke-opacity:1;stroke-miterlimit:10;" d="M -2.994125 7.903563 L -2.994125 14.341063 " transform="matrix(1,0,0,-1,103.166,97.802)"/>
<path style="fill:none;stroke-width:1.59404;stroke-linecap:butt;stroke-linejoin:miter;stroke:rgb(0%,0%,0%);stroke-opacity:1;stroke-miterlimit:10;" d="M 2.994156 7.903563 L 2.994156 14.341063 " transform="matrix(1,0,0,-1,103.166,97.802)"/>
<path style="fill:none;stroke-width:1.59404;stroke-linecap:butt;stroke-linejoin:miter;stroke:rgb(0%,0%,0%);stroke-opacity:1;stroke-miterlimit:10;" d="M -8.9785 0.00121875 L -15.412094 0.00121875 " transform="matrix(1,0,0,-1,103.166,97.802)"/>
<g clip-path="url(#clip7)" clip-rule="nonzero">
<path style="fill:none;stroke-width:1.59404;stroke-linecap:butt;stroke-linejoin:miter;stroke:rgb(0%,0%,0%);stroke-opacity:1;stroke-miterlimit:10;" d="M 50.517125 -35.237687 C 65.294469 -35.237687 49.337437 0.00059375 64.114781 0.00059375 M -3.615688 42.344344 C -3.615688 50.621688 -22.443813 43.840438 -22.443813 52.117781 M -3.615688 10.72325 C -3.615688 17.887313 7.337437 13.574813 13.540562 17.156844 C 25.728062 24.192 22.442906 38.047469 22.442906 52.117781 " transform="matrix(1,0,0,-1,68.061,62.567)"/>
</g>
<path style="fill:none;stroke-width:1.59404;stroke-linecap:butt;stroke-linejoin:miter;stroke:rgb(0%,0%,0%);stroke-opacity:1;stroke-miterlimit:10;" d="M -45.330531 -20.897844 C -45.330531 0.41075 -42.350063 28.0045 -21.041469 28.0045 " transform="matrix(1,0,0,-1,68.061,62.567)"/>
<path style="fill:none;stroke-width:1.59404;stroke-linecap:butt;stroke-linejoin:miter;stroke:rgb(0%,0%,0%);stroke-opacity:1;stroke-miterlimit:10;" d="M -39.34225 -20.897844 C -39.34225 -11.034562 -30.90475 -3.616594 -21.041469 -3.616594 " transform="matrix(1,0,0,-1,68.061,62.567)"/>
<path style="fill:none;stroke-width:1.59404;stroke-linecap:butt;stroke-linejoin:miter;stroke:rgb(0%,0%,0%);stroke-opacity:1;stroke-miterlimit:10;" d="M 13.810094 28.0045 C 35.118687 28.0045 38.09525 0.41075 38.09525 -20.897844 " transform="matrix(1,0,0,-1,68.061,62.567)"/>
<path style="fill:none;stroke-width:1.59404;stroke-linecap:butt;stroke-linejoin:miter;stroke:rgb(0%,0%,0%);stroke-opacity:1;stroke-miterlimit:10;" d="M 13.810094 -3.616594 C 23.673375 -3.616594 32.110875 -11.034562 32.110875 -20.897844 " transform="matrix(1,0,0,-1,68.061,62.567)"/>
<path style="fill:none;stroke-width:1.59404;stroke-linecap:butt;stroke-linejoin:miter;stroke:rgb(0%,0%,0%);stroke-opacity:1;stroke-miterlimit:10;" d="M -26.924281 -35.237687 L 19.692906 -35.237687 " transform="matrix(1,0,0,-1,68.061,62.567)"/>
<path style="fill:none;stroke-width:1.59404;stroke-linecap:butt;stroke-linejoin:miter;stroke:rgb(0%,0%,0%);stroke-opacity:1;stroke-miterlimit:10;" d="M 67.331704 -0.00210103 L 73.757299 -0.00210103 " transform="matrix(0.13739,0,0,-0.13739,25.479766,97.820024)"/>
<path style="fill:none;stroke-width:1.59404;stroke-linecap:butt;stroke-linejoin:miter;stroke:rgb(0%,0%,0%);stroke-opacity:1;stroke-miterlimit:10;" d="M -22.456036 55.326253 L -22.456036 61.780279 " transform="matrix(0.13739,0,0,-0.13739,25.479766,97.820024)"/>
<path style="fill:none;stroke-width:1.59404;stroke-linecap:butt;stroke-linejoin:miter;stroke:rgb(0%,0%,0%);stroke-opacity:1;stroke-miterlimit:10;" d="M 22.437834 55.326253 L 22.437834 61.780279 " transform="matrix(0.13739,0,0,-0.13739,25.479766,97.820024)"/>
<path style="fill:none;stroke-width:1.59404;stroke-linecap:butt;stroke-linejoin:miter;stroke:rgb(0%,0%,0%);stroke-opacity:1;stroke-miterlimit:10;" d="M -22.456036 61.780279 L -22.456036 52.113455 M 22.437834 61.780279 L 22.437834 52.113455 M 73.757299 -0.00210103 L 64.118906 -0.00210103 " transform="matrix(0.13739,0,0,-0.13739,25.479766,97.820024)"/>
<path style="fill-rule:nonzero;fill:rgb(100%,100%,100%);fill-opacity:1;stroke-width:0.79701;stroke-linecap:butt;stroke-linejoin:miter;stroke:rgb(100%,100%,100%);stroke-opacity:1;stroke-miterlimit:10;" d="M 6.606458 7.504263 L -6.614346 7.504263 C -8.803597 7.504263 -10.594803 5.713057 -10.594803 3.523806 L -10.594803 -3.52729 C -10.594803 -5.716541 -8.803597 -7.507747 -6.614346 -7.507747 L 6.606458 -7.507747 C 8.795709 -7.507747 10.586915 -5.716541 10.586915 -3.52729 L 10.586915 3.523806 C 10.586915 5.713057 8.795709 7.504263 6.606458 7.504263 Z M 6.606458 7.504263 " transform="matrix(0.13739,0,0,-0.13739,24.982964,93.972417)"/>
<path style="fill:none;stroke-width:1.59404;stroke-linecap:butt;stroke-linejoin:miter;stroke:rgb(100%,100%,100%);stroke-opacity:1;stroke-miterlimit:10;" d="M 10.984961 -0.00174219 L 17.438988 -0.00174219 " transform="matrix(0.13739,0,0,-0.13739,24.982964,93.972417)"/>
<path style="fill:none;stroke-width:1.59404;stroke-linecap:butt;stroke-linejoin:miter;stroke:rgb(100%,100%,100%);stroke-opacity:1;stroke-miterlimit:10;" d="M 0.0102719 7.902308 L 0.0102719 14.327903 " transform="matrix(0.13739,0,0,-0.13739,24.982964,93.972417)"/>
<path style="fill:none;stroke-width:1.59404;stroke-linecap:butt;stroke-linejoin:miter;stroke:rgb(100%,100%,100%);stroke-opacity:1;stroke-miterlimit:10;" d="M -10.992849 -0.00174219 L -17.418444 -0.00174219 " transform="matrix(0.13739,0,0,-0.13739,24.982964,93.972417)"/>
<path style="fill-rule:nonzero;fill:rgb(100%,100%,100%);fill-opacity:1;stroke-width:0.79701;stroke-linecap:butt;stroke-linejoin:miter;stroke:rgb(100%,100%,100%);stroke-opacity:1;stroke-miterlimit:10;" d="M 6.606458 7.508061 L -6.614346 7.508061 C -8.803597 7.508061 -10.594803 5.716855 -10.594803 3.527603 L -10.594803 -3.523492 C -10.594803 -5.712743 -8.803597 -7.503949 -6.614346 -7.503949 L 6.606458 -7.503949 C 8.795709 -7.503949 10.586915 -5.712743 10.586915 -3.523492 L 10.586915 3.527603 C 10.586915 5.716855 8.795709 7.508061 6.606458 7.508061 Z M 6.606458 7.508061 " transform="matrix(0.13739,0,0,-0.13739,24.982964,98.316689)"/>
<path style="fill:none;stroke-width:1.59404;stroke-linecap:butt;stroke-linejoin:miter;stroke:rgb(100%,100%,100%);stroke-opacity:1;stroke-miterlimit:10;" d="M 10.984961 0.00205575 L 17.438988 0.00205575 " transform="matrix(0.13739,0,0,-0.13739,24.982964,98.316689)"/>
<path style="fill:none;stroke-width:1.59404;stroke-linecap:butt;stroke-linejoin:miter;stroke:rgb(100%,100%,100%);stroke-opacity:1;stroke-miterlimit:10;" d="M 0.0102719 7.906106 L 0.0102719 14.331701 " transform="matrix(0.13739,0,0,-0.13739,24.982964,98.316689)"/>
<path style="fill:none;stroke-width:1.59404;stroke-linecap:butt;stroke-linejoin:miter;stroke:rgb(100%,100%,100%);stroke-opacity:1;stroke-miterlimit:10;" d="M -10.992849 0.00205575 L -17.418444 0.00205575 " transform="matrix(0.13739,0,0,-0.13739,24.982964,98.316689)"/>
<path style="fill-rule:nonzero;fill:rgb(100%,100%,100%);fill-opacity:1;stroke-width:0.79701;stroke-linecap:butt;stroke-linejoin:miter;stroke:rgb(100%,100%,100%);stroke-opacity:1;stroke-miterlimit:10;" d="M 4.583636 7.511859 L -4.599847 7.511859 C -6.789098 7.511859 -8.580304 5.720653 -8.580304 3.531401 L -8.580304 -3.519694 C -8.580304 -5.708945 -6.789098 -7.500151 -4.599847 -7.500151 L 4.583636 -7.500151 C 6.80132 -7.500151 8.592525 -5.708945 8.592525 -3.519694 L 8.592525 3.531401 C 8.592525 5.720653 6.80132 7.511859 4.583636 7.511859 Z M 4.583636 7.511859 " transform="matrix(0.13739,0,0,-0.13739,19.663223,102.66096)"/>
<path style="fill:none;stroke-width:1.59404;stroke-linecap:butt;stroke-linejoin:miter;stroke:rgb(100%,100%,100%);stroke-opacity:1;stroke-miterlimit:10;" d="M 8.990571 0.0058537 L 15.416166 0.0058537 " transform="matrix(0.13739,0,0,-0.13739,19.663223,102.66096)"/>
<path style="fill:none;stroke-width:1.59404;stroke-linecap:butt;stroke-linejoin:miter;stroke:rgb(100%,100%,100%);stroke-opacity:1;stroke-miterlimit:10;" d="M -2.979232 7.909904 L -2.979232 14.335499 " transform="matrix(0.13739,0,0,-0.13739,19.663223,102.66096)"/>
<path style="fill:none;stroke-width:1.59404;stroke-linecap:butt;stroke-linejoin:miter;stroke:rgb(100%,100%,100%);stroke-opacity:1;stroke-miterlimit:10;" d="M 2.991454 7.909904 L 2.991454 14.335499 " transform="matrix(0.13739,0,0,-0.13739,19.663223,102.66096)"/>
<path style="fill-rule:nonzero;fill:rgb(100%,100%,100%);fill-opacity:1;stroke-width:0.79701;stroke-linecap:butt;stroke-linejoin:miter;stroke:rgb(100%,100%,100%);stroke-opacity:1;stroke-miterlimit:10;" d="M 4.591959 7.511859 L -4.591524 7.511859 C -6.780776 7.511859 -8.571982 5.720653 -8.571982 3.531401 L -8.571982 -3.519694 C -8.571982 -5.708945 -6.780776 -7.500151 -4.591524 -7.500151 L 4.591959 -7.500151 C 6.78121 -7.500151 8.572416 -5.708945 8.572416 -3.519694 L 8.572416 3.531401 C 8.572416 5.720653 6.78121 7.511859 4.591959 7.511859 Z M 4.591959 7.511859 " transform="matrix(0.13739,0,0,-0.13739,30.302705,102.66096)"/>
<path style="fill:none;stroke-width:1.59404;stroke-linecap:butt;stroke-linejoin:miter;stroke:rgb(100%,100%,100%);stroke-opacity:1;stroke-miterlimit:10;" d="M 8.970461 0.0058537 L 15.424488 0.0058537 " transform="matrix(0.13739,0,0,-0.13739,30.302705,102.66096)"/>
<path style="fill:none;stroke-width:1.59404;stroke-linecap:butt;stroke-linejoin:miter;stroke:rgb(100%,100%,100%);stroke-opacity:1;stroke-miterlimit:10;" d="M -2.999342 7.909904 L -2.999342 14.335499 " transform="matrix(0.13739,0,0,-0.13739,30.302705,102.66096)"/>
<path style="fill:none;stroke-width:1.59404;stroke-linecap:butt;stroke-linejoin:miter;stroke:rgb(100%,100%,100%);stroke-opacity:1;stroke-miterlimit:10;" d="M 2.999776 7.909904 L 2.999776 14.335499 " transform="matrix(0.13739,0,0,-0.13739,30.302705,102.66096)"/>
<path style="fill:none;stroke-width:1.59404;stroke-linecap:butt;stroke-linejoin:miter;stroke:rgb(100%,100%,100%);stroke-opacity:1;stroke-miterlimit:10;" d="M -8.970027 0.0058537 L -15.424054 0.0058537 " transform="matrix(0.13739,0,0,-0.13739,30.302705,102.66096)"/>
<path style="fill:none;stroke-width:1.59404;stroke-linecap:butt;stroke-linejoin:miter;stroke:rgb(100%,100%,100%);stroke-opacity:1;stroke-miterlimit:10;" d="M 50.528488 -35.229146 C 65.284611 -35.229146 49.334351 -0.00210103 64.118906 -0.00210103 M -3.605728 42.332903 C -3.605728 50.635 -22.456036 43.839791 -22.456036 52.113455 M -3.605728 10.716701 C -3.605728 17.881524 7.340529 13.588317 13.538669 17.170728 C 25.735927 24.193392 22.437834 38.039696 22.437834 52.113455 " transform="matrix(0.13739,0,0,-0.13739,25.479766,97.820024)"/>
<path style="fill:none;stroke-width:1.59404;stroke-linecap:butt;stroke-linejoin:miter;stroke:rgb(100%,100%,100%);stroke-opacity:1;stroke-miterlimit:10;" d="M -45.315232 -20.899501 C -45.315232 0.424377 -42.358321 28.003258 -21.034444 28.003258 " transform="matrix(0.13739,0,0,-0.13739,25.479766,97.820024)"/>
<path style="fill:none;stroke-width:1.59404;stroke-linecap:butt;stroke-linejoin:miter;stroke:rgb(100%,100%,100%);stroke-opacity:1;stroke-miterlimit:10;" d="M -39.344546 -20.899501 C -39.344546 -11.033654 -30.900291 -3.612944 -21.034444 -3.612944 " transform="matrix(0.13739,0,0,-0.13739,25.479766,97.820024)"/>
<path style="fill:none;stroke-width:1.59404;stroke-linecap:butt;stroke-linejoin:miter;stroke:rgb(100%,100%,100%);stroke-opacity:1;stroke-miterlimit:10;" d="M 13.822988 28.003258 C 35.118433 28.003258 38.103776 0.424377 38.103776 -20.899501 " transform="matrix(0.13739,0,0,-0.13739,25.479766,97.820024)"/>
<path style="fill:none;stroke-width:1.59404;stroke-linecap:butt;stroke-linejoin:miter;stroke:rgb(100%,100%,100%);stroke-opacity:1;stroke-miterlimit:10;" d="M 13.822988 -3.612944 C 23.660403 -3.612944 32.104658 -11.033654 32.104658 -20.899501 " transform="matrix(0.13739,0,0,-0.13739,25.479766,97.820024)"/>
<path style="fill:none;stroke-width:1.59404;stroke-linecap:butt;stroke-linejoin:miter;stroke:rgb(100%,100%,100%);stroke-opacity:1;stroke-miterlimit:10;" d="M -26.919834 -35.229146 L 19.679946 -35.229146 " transform="matrix(0.13739,0,0,-0.13739,25.479766,97.820024)"/>
</g>
</svg>
